<svg width="64" height="64" viewBox="0 0 64 64" fill="none" xmlns="http://www.w3.org/2000/svg">
  <defs>
    <linearGradient id="g" x1="7" y1="7" x2="57" y2="57" gradientUnits="userSpaceOnUse">
      <stop offset="0" stop-color="#67E8F9"/>
      <stop offset="0.5" stop-color="#F0ABFC"/>
      <stop offset="1" stop-color="#FB7185"/>
    </linearGradient>
    <filter id="glow" x="-40%" y="-40%" width="180%" height="180%" color-interpolation-filters="sRGB">
      <feDropShadow dx="0" dy="0" stdDeviation="2.2" flood-color="#22D3EE" flood-opacity="0.8"/>
      <feDropShadow dx="0" dy="0" stdDeviation="4.5" flood-color="#D946EF" flood-opacity="0.58"/>
    </filter>
  </defs>
  <rect width="64" height="64" fill="#070512"/>
  <path d="M4 54H60L54 62H10L4 54Z" fill="#67E8F9" fill-opacity="0.78"/>
  <path d="M10 2H54L60 10H4L10 2Z" fill="#F0ABFC" fill-opacity="0.75"/>
  <g filter="url(#glow)">
    <path d="M9 52L18 12H29L32 33L44 12H55L46 52H35L39 32L29 52H22L18 32L14 52H9Z" fill="url(#g)"/>
    <path d="M35 22L37 12H59L57 22H51L44 52H33L40 22H35Z" fill="url(#g)"/>
  </g>
</svg>
