<svg width="760" height="210" viewBox="0 0 760 210" fill="none" xmlns="http://www.w3.org/2000/svg" role="img" aria-labelledby="title desc">
  <title id="title">MotleyTech logo</title>
  <desc id="desc">Vaporwave MotleyTech wordmark in Royalty Free script, hot pink outlined in neon blue with a flat black drop shadow.</desc>
  <rect width="760" height="210" fill="transparent"/>
  <g transform="translate(37.665167275794204,175.12173179645768) scale(0.17767781838628058,-0.17767781838628058)" fill="#000000" opacity="0.55">
    <g transform="translate(0,0)"><path d="M531 -16Q511 -11 511 9Q511 35 528.5 87.0Q546 139 573.0 205.0Q600 271 633.5 344.0Q667 417 699.0 484.0Q731 551 758.5 605.5Q786 660 801 689L800 698Q786 693 762.5 668.0Q739 643 709.5 606.0Q680 569 645.5 523.0Q611 477 575.5 429.5Q540 382 504.5 337.5Q469 293 437.5 258.0Q406 223 380.0 202.0Q354 181 337 181Q316 181 304.0 194.0Q292 207 287.0 225.0Q282 243 281.0 263.5Q280 284 280 299Q280 344 285.5 388.5Q291 433 293 478Q279 467 257.0 436.5Q235 406 208.5 365.0Q182 324 154.0 277.5Q126 231 101.5 188.0Q77 145 58.0 109.5Q39 74 31 55Q26 45 26.0 32.5Q26 20 24 9Q13 0 -1 0Q-8 0 -11.5 5.0Q-15 10 -15 17Q-15 26 -3.5 52.0Q8 78 27.5 115.0Q47 152 72.0 196.5Q97 241 124.0 286.0Q151 331 178.0 373.0Q205 415 228.0 448.0Q251 481 268.0 501.0Q285 521 292 522Q309 518 315.5 503.0Q322 488 322 472Q322 418 314.5 363.5Q307 309 307 255Q307 242 309.5 230.5Q312 219 320 208Q336 207 348.0 214.5Q360 222 371 233Q404 267 443.0 315.0Q482 363 524.5 417.0Q567 471 611.0 526.0Q655 581 697.0 631.0Q739 681 777.5 720.5Q816 760 847 783Q856 779 862.5 772.5Q869 766 869 755Q869 747 864.0 733.5Q859 720 852.0 706.0Q845 692 838.0 679.0Q831 666 827 658Q743 495 666.0 326.5Q589 158 531 -16Z"/></g>
    <g transform="translate(760,0)"><path d="M163 412Q201 389 207.0 370.5Q213 352 209 336L251 337Q259 337 270.5 335.5Q282 334 293.0 330.5Q304 327 313.5 321.5Q323 316 328 309L317 302Q313 307 304.5 310.5Q296 314 286.0 315.5Q276 317 266.0 317.5Q256 318 250 318Q239 318 227.5 317.0Q216 316 205 314Q198 291 179.5 264.0Q161 237 136.5 214.0Q112 191 85.0 175.0Q58 159 33 159Q7 159 -13.5 179.0Q-34 199 -34 226Q-34 248 -18.0 283.5Q-2 319 22.5 352.5Q47 386 77.0 410.0Q107 434 134 434Q142 434 150.0 426.0Q158 418 163 412ZM50 328Q31 299 15.0 271.0Q-1 243 -1 207Q-1 183 21 183Q41 183 63.5 196.0Q86 209 107.0 228.0Q128 247 145.0 268.5Q162 290 170 307L165 306L142 330L181 334Q183 339 184.0 343.0Q185 347 185 352Q185 367 172 378Q162 375 145.5 366.0Q129 357 112 346Q93 334 72 319Q68 319 60.5 322.5Q53 326 50 328Z"/></g>
    <g transform="translate(1080,0)"><path d="M274 299Q254 277 222.0 247.0Q190 217 156.5 189.5Q123 162 92.5 143.0Q62 124 44 124Q27 124 15.0 132.0Q3 140 -5.0 153.0Q-13 166 -17.0 181.5Q-21 197 -21 211Q-21 257 -6.5 305.0Q8 353 30.0 400.0Q52 447 78.0 491.0Q104 535 128 573L123 580Q97 575 80.5 570.5Q64 566 48.5 562.5Q33 559 16.0 557.0Q-1 555 -26 555L-47 567Q-26 585 5.0 589.5Q36 594 68.0 597.0Q100 600 129.0 606.5Q158 613 176 635Q185 646 196.0 655.0Q207 664 216 675Q222 671 227.5 665.5Q233 660 233 652Q233 644 228.0 637.0Q223 630 220 622Q240 620 259.5 622.0Q279 624 299 624Q339 624 374 603Q360 603 346.0 604.0Q332 605 318 605Q290 605 261.0 601.0Q232 597 205 591Q188 587 167.0 561.5Q146 536 123.0 498.0Q100 460 78.5 414.5Q57 369 40.0 325.5Q23 282 12.5 245.5Q2 209 2 188Q2 182 3.0 174.0Q4 166 7.0 159.5Q10 153 15.5 148.5Q21 144 29 144Q47 144 78.5 163.0Q110 182 144.5 208.5Q179 235 212.0 263.5Q245 292 268 310Z"/></g>
    <g transform="translate(1342,0)"><path d="M234 300Q204 277 176.0 254.5Q148 232 125.0 213.0Q102 194 84.5 180.5Q67 167 59 161Q44 152 30.0 151.5Q16 151 5.5 156.5Q-5 162 -11.5 172.0Q-18 182 -19 194Q-20 211 -19.5 228.5Q-19 246 -16 263Q-6 321 9.0 373.0Q24 425 41.5 473.5Q59 522 79.0 570.5Q99 619 119 670Q134 666 138.0 660.5Q142 655 140 646Q137 635 134.5 623.5Q132 612 128 600Q115 558 98.5 512.5Q82 467 65.5 420.5Q49 374 33.5 327.5Q18 281 8 236Q0 202 9.0 192.0Q18 182 38.0 188.0Q58 194 84.5 211.0Q111 228 138.5 248.0Q166 268 190.0 285.5Q214 303 229 310Z"/></g>
    <g transform="translate(1569,0)"><path d="M304 300Q282 284 249.0 263.5Q216 243 179.5 224.5Q143 206 107.0 193.5Q71 181 43 181Q29 181 15.5 184.5Q2 188 -9.0 195.0Q-20 202 -27.0 213.0Q-34 224 -34 240Q-34 265 -15.0 294.5Q4 324 31.5 349.5Q59 375 90.0 392.5Q121 410 145 410Q152 410 162.5 407.0Q173 404 182.5 398.5Q192 393 199.0 386.0Q206 379 206 370Q206 355 187.5 337.0Q169 319 144.0 304.0Q119 289 94.0 278.5Q69 268 56 268Q47 268 38.0 269.0Q29 270 20 270L12 274Q10 265 5.5 250.0Q1 235 1 226Q1 203 24 203Q48 203 86.5 215.0Q125 227 166.0 243.5Q207 260 243.5 278.5Q280 297 300 310ZM164 383Q144 383 123.0 374.5Q102 366 83.0 352.5Q64 339 49.0 322.0Q34 305 25 288L35 287Q51 287 72.5 296.5Q94 306 114.5 320.5Q135 335 151.5 351.5Q168 368 174 383Z"/></g>
    <g transform="translate(1866,0)"><path d="M44 244Q34 239 24.0 237.5Q14 236 4 244Q-16 260 -13 286L-9 301Q21 377 78 433Q86 442 94.0 442.5Q102 443 109 429Q89 400 68.0 372.0Q47 344 33 310Q22 282 20.0 270.0Q18 258 34 268Q79 297 118.0 332.5Q157 368 195 406Q201 401 208.0 396.0Q215 391 222 386L194 270Q215 280 238.0 287.5Q261 295 281.0 300.0Q301 305 317.0 307.0Q333 309 341 307L342 298Q316 295 272.0 281.0Q228 267 187 243Q170 200 156.5 163.0Q143 126 128.0 91.5Q113 57 93.0 22.5Q73 -12 43 -49Q34 -61 22.5 -72.0Q11 -83 -1 -93Q-14 -103 -31 -106Q-41 -107 -50.0 -104.0Q-59 -101 -65.5 -95.0Q-72 -89 -76.0 -80.0Q-80 -71 -79 -61Q-78 -53 -76.5 -44.0Q-75 -35 -71 -27Q-60 -7 -49.5 13.5Q-39 34 -26 52Q9 107 48.5 148.0Q88 189 134 233Q140 239 147.0 251.0Q154 263 159.5 278.0Q165 293 169.0 308.5Q173 324 173 337Q137 316 106.5 291.0Q76 266 44 244ZM-48 -72Q-33 -67 -14.5 -49.5Q4 -32 23.0 -8.5Q42 15 60.0 43.5Q78 72 92.0 99.5Q106 127 114.5 151.0Q123 175 123 192Q97 160 71.0 129.5Q45 99 22.0 67.5Q-1 36 -19.5 1.5Q-38 -33 -48 -72Z"/></g>
    <g transform="translate(2201,0)"><path d="M787 734Q764 739 740.5 741.0Q717 743 693 743Q627 743 563.5 736.5Q500 730 436 723Q411 720 398.0 711.0Q385 702 374 682Q281 512 205.5 339.5Q130 167 68 -14Q60 -17 56.0 -10.0Q52 -3 52 2Q52 33 68.0 87.0Q84 141 110.0 205.5Q136 270 168.0 340.0Q200 410 231.0 473.5Q262 537 289.0 589.0Q316 641 333 670Q346 692 356 711Q345 710 317.5 706.0Q290 702 255.0 695.0Q220 688 182.5 679.0Q145 670 114.0 659.5Q83 649 63.0 637.0Q43 625 43 613Q43 603 62.0 587.0Q81 571 103.5 551.0Q126 531 145.0 509.0Q164 487 164 465Q158 469 143.5 480.5Q129 492 112.0 508.0Q95 524 76.5 542.5Q58 561 43.0 578.0Q28 595 18.5 608.0Q9 621 9 626Q9 648 33.0 666.5Q57 685 97.0 699.5Q137 714 188.5 726.0Q240 738 296.5 746.5Q353 755 409.5 761.0Q466 767 515.0 771.0Q564 775 602.0 776.5Q640 778 658 778Q680 778 698.5 778.5Q717 779 733.0 775.5Q749 772 762.5 762.5Q776 753 787 734Z"/></g>
    <g transform="translate(2530,0)"><path d="M304 300Q282 284 249.0 263.5Q216 243 179.5 224.5Q143 206 107.0 193.5Q71 181 43 181Q29 181 15.5 184.5Q2 188 -9.0 195.0Q-20 202 -27.0 213.0Q-34 224 -34 240Q-34 265 -15.0 294.5Q4 324 31.5 349.5Q59 375 90.0 392.5Q121 410 145 410Q152 410 162.5 407.0Q173 404 182.5 398.5Q192 393 199.0 386.0Q206 379 206 370Q206 355 187.5 337.0Q169 319 144.0 304.0Q119 289 94.0 278.5Q69 268 56 268Q47 268 38.0 269.0Q29 270 20 270L12 274Q10 265 5.5 250.0Q1 235 1 226Q1 203 24 203Q48 203 86.5 215.0Q125 227 166.0 243.5Q207 260 243.5 278.5Q280 297 300 310ZM164 383Q144 383 123.0 374.5Q102 366 83.0 352.5Q64 339 49.0 322.0Q34 305 25 288L35 287Q51 287 72.5 296.5Q94 306 114.5 320.5Q135 335 151.5 351.5Q168 368 174 383Z"/></g>
    <g transform="translate(2827,0)"><path d="M331 299Q277 268 228.5 243.5Q180 219 132 196Q112 185 90.0 177.5Q68 170 45 169Q23 167 6.5 175.5Q-10 184 -18.5 199.0Q-27 214 -27.5 234.5Q-28 255 -18 278Q17 361 86 408Q106 422 119.5 418.0Q133 414 148 396Q162 379 161.5 363.5Q161 348 144 322Q134 325 131.5 331.0Q129 337 129.0 344.5Q129 352 129.5 359.5Q130 367 126 372Q113 378 96.5 366.5Q80 355 63.5 334.5Q47 314 34.5 288.0Q22 262 17.5 240.0Q13 218 19.0 204.0Q25 190 47 193Q79 198 144.5 228.0Q210 258 326 311Z"/></g>
    <g transform="translate(3149,0)"><path d="M414 301Q395 282 372.0 261.0Q349 240 325.5 223.0Q302 206 280.0 195.5Q258 185 240.0 186.5Q222 188 210.5 204.0Q199 220 196 256Q194 285 182.0 293.0Q170 301 151 296Q141 293 126.5 282.0Q112 271 95.5 257.0Q79 243 62.5 227.5Q46 212 31.0 200.0Q16 188 4.5 181.0Q-7 174 -12 176Q-20 179 -26.0 184.5Q-32 190 -32 199Q-32 209 -23.0 244.5Q-14 280 0.0 329.0Q14 378 31.5 434.0Q49 490 65.0 540.0Q81 590 94.0 628.5Q107 667 113 681Q120 678 129.5 673.0Q139 668 139 658Q139 646 129.0 613.0Q119 580 103.5 536.5Q88 493 70.5 444.5Q53 396 38.0 352.0Q23 308 13.0 274.5Q3 241 4 227Q41 250 77.5 277.0Q114 304 144.5 318.5Q175 333 196.5 328.0Q218 323 225 281Q232 236 249.0 225.5Q266 215 289.5 225.5Q313 236 343.0 260.5Q373 285 408 310Z"/></g>
  </g>
  <g transform="translate(28.665167275794207,165.12173179645768) scale(0.17767781838628058,-0.17767781838628058)" fill="none" stroke="#22D3EE" stroke-width="30" stroke-linejoin="round" opacity="1">
    <g transform="translate(0,0)"><path d="M531 -16Q511 -11 511 9Q511 35 528.5 87.0Q546 139 573.0 205.0Q600 271 633.5 344.0Q667 417 699.0 484.0Q731 551 758.5 605.5Q786 660 801 689L800 698Q786 693 762.5 668.0Q739 643 709.5 606.0Q680 569 645.5 523.0Q611 477 575.5 429.5Q540 382 504.5 337.5Q469 293 437.5 258.0Q406 223 380.0 202.0Q354 181 337 181Q316 181 304.0 194.0Q292 207 287.0 225.0Q282 243 281.0 263.5Q280 284 280 299Q280 344 285.5 388.5Q291 433 293 478Q279 467 257.0 436.5Q235 406 208.5 365.0Q182 324 154.0 277.5Q126 231 101.5 188.0Q77 145 58.0 109.5Q39 74 31 55Q26 45 26.0 32.5Q26 20 24 9Q13 0 -1 0Q-8 0 -11.5 5.0Q-15 10 -15 17Q-15 26 -3.5 52.0Q8 78 27.5 115.0Q47 152 72.0 196.5Q97 241 124.0 286.0Q151 331 178.0 373.0Q205 415 228.0 448.0Q251 481 268.0 501.0Q285 521 292 522Q309 518 315.5 503.0Q322 488 322 472Q322 418 314.5 363.5Q307 309 307 255Q307 242 309.5 230.5Q312 219 320 208Q336 207 348.0 214.5Q360 222 371 233Q404 267 443.0 315.0Q482 363 524.5 417.0Q567 471 611.0 526.0Q655 581 697.0 631.0Q739 681 777.5 720.5Q816 760 847 783Q856 779 862.5 772.5Q869 766 869 755Q869 747 864.0 733.5Q859 720 852.0 706.0Q845 692 838.0 679.0Q831 666 827 658Q743 495 666.0 326.5Q589 158 531 -16Z"/></g>
    <g transform="translate(760,0)"><path d="M163 412Q201 389 207.0 370.5Q213 352 209 336L251 337Q259 337 270.5 335.5Q282 334 293.0 330.5Q304 327 313.5 321.5Q323 316 328 309L317 302Q313 307 304.5 310.5Q296 314 286.0 315.5Q276 317 266.0 317.5Q256 318 250 318Q239 318 227.5 317.0Q216 316 205 314Q198 291 179.5 264.0Q161 237 136.5 214.0Q112 191 85.0 175.0Q58 159 33 159Q7 159 -13.5 179.0Q-34 199 -34 226Q-34 248 -18.0 283.5Q-2 319 22.5 352.5Q47 386 77.0 410.0Q107 434 134 434Q142 434 150.0 426.0Q158 418 163 412ZM50 328Q31 299 15.0 271.0Q-1 243 -1 207Q-1 183 21 183Q41 183 63.5 196.0Q86 209 107.0 228.0Q128 247 145.0 268.5Q162 290 170 307L165 306L142 330L181 334Q183 339 184.0 343.0Q185 347 185 352Q185 367 172 378Q162 375 145.5 366.0Q129 357 112 346Q93 334 72 319Q68 319 60.5 322.5Q53 326 50 328Z"/></g>
    <g transform="translate(1080,0)"><path d="M274 299Q254 277 222.0 247.0Q190 217 156.5 189.5Q123 162 92.5 143.0Q62 124 44 124Q27 124 15.0 132.0Q3 140 -5.0 153.0Q-13 166 -17.0 181.5Q-21 197 -21 211Q-21 257 -6.5 305.0Q8 353 30.0 400.0Q52 447 78.0 491.0Q104 535 128 573L123 580Q97 575 80.5 570.5Q64 566 48.5 562.5Q33 559 16.0 557.0Q-1 555 -26 555L-47 567Q-26 585 5.0 589.5Q36 594 68.0 597.0Q100 600 129.0 606.5Q158 613 176 635Q185 646 196.0 655.0Q207 664 216 675Q222 671 227.5 665.5Q233 660 233 652Q233 644 228.0 637.0Q223 630 220 622Q240 620 259.5 622.0Q279 624 299 624Q339 624 374 603Q360 603 346.0 604.0Q332 605 318 605Q290 605 261.0 601.0Q232 597 205 591Q188 587 167.0 561.5Q146 536 123.0 498.0Q100 460 78.5 414.5Q57 369 40.0 325.5Q23 282 12.5 245.5Q2 209 2 188Q2 182 3.0 174.0Q4 166 7.0 159.5Q10 153 15.5 148.5Q21 144 29 144Q47 144 78.5 163.0Q110 182 144.5 208.5Q179 235 212.0 263.5Q245 292 268 310Z"/></g>
    <g transform="translate(1342,0)"><path d="M234 300Q204 277 176.0 254.5Q148 232 125.0 213.0Q102 194 84.5 180.5Q67 167 59 161Q44 152 30.0 151.5Q16 151 5.5 156.5Q-5 162 -11.5 172.0Q-18 182 -19 194Q-20 211 -19.5 228.5Q-19 246 -16 263Q-6 321 9.0 373.0Q24 425 41.5 473.5Q59 522 79.0 570.5Q99 619 119 670Q134 666 138.0 660.5Q142 655 140 646Q137 635 134.5 623.5Q132 612 128 600Q115 558 98.5 512.5Q82 467 65.5 420.5Q49 374 33.5 327.5Q18 281 8 236Q0 202 9.0 192.0Q18 182 38.0 188.0Q58 194 84.5 211.0Q111 228 138.5 248.0Q166 268 190.0 285.5Q214 303 229 310Z"/></g>
    <g transform="translate(1569,0)"><path d="M304 300Q282 284 249.0 263.5Q216 243 179.5 224.5Q143 206 107.0 193.5Q71 181 43 181Q29 181 15.5 184.5Q2 188 -9.0 195.0Q-20 202 -27.0 213.0Q-34 224 -34 240Q-34 265 -15.0 294.5Q4 324 31.5 349.5Q59 375 90.0 392.5Q121 410 145 410Q152 410 162.5 407.0Q173 404 182.5 398.5Q192 393 199.0 386.0Q206 379 206 370Q206 355 187.5 337.0Q169 319 144.0 304.0Q119 289 94.0 278.5Q69 268 56 268Q47 268 38.0 269.0Q29 270 20 270L12 274Q10 265 5.5 250.0Q1 235 1 226Q1 203 24 203Q48 203 86.5 215.0Q125 227 166.0 243.5Q207 260 243.5 278.5Q280 297 300 310ZM164 383Q144 383 123.0 374.5Q102 366 83.0 352.5Q64 339 49.0 322.0Q34 305 25 288L35 287Q51 287 72.5 296.5Q94 306 114.5 320.5Q135 335 151.5 351.5Q168 368 174 383Z"/></g>
    <g transform="translate(1866,0)"><path d="M44 244Q34 239 24.0 237.5Q14 236 4 244Q-16 260 -13 286L-9 301Q21 377 78 433Q86 442 94.0 442.5Q102 443 109 429Q89 400 68.0 372.0Q47 344 33 310Q22 282 20.0 270.0Q18 258 34 268Q79 297 118.0 332.5Q157 368 195 406Q201 401 208.0 396.0Q215 391 222 386L194 270Q215 280 238.0 287.5Q261 295 281.0 300.0Q301 305 317.0 307.0Q333 309 341 307L342 298Q316 295 272.0 281.0Q228 267 187 243Q170 200 156.5 163.0Q143 126 128.0 91.5Q113 57 93.0 22.5Q73 -12 43 -49Q34 -61 22.5 -72.0Q11 -83 -1 -93Q-14 -103 -31 -106Q-41 -107 -50.0 -104.0Q-59 -101 -65.5 -95.0Q-72 -89 -76.0 -80.0Q-80 -71 -79 -61Q-78 -53 -76.5 -44.0Q-75 -35 -71 -27Q-60 -7 -49.5 13.5Q-39 34 -26 52Q9 107 48.5 148.0Q88 189 134 233Q140 239 147.0 251.0Q154 263 159.5 278.0Q165 293 169.0 308.5Q173 324 173 337Q137 316 106.5 291.0Q76 266 44 244ZM-48 -72Q-33 -67 -14.5 -49.5Q4 -32 23.0 -8.5Q42 15 60.0 43.5Q78 72 92.0 99.5Q106 127 114.5 151.0Q123 175 123 192Q97 160 71.0 129.5Q45 99 22.0 67.5Q-1 36 -19.5 1.5Q-38 -33 -48 -72Z"/></g>
    <g transform="translate(2201,0)"><path d="M787 734Q764 739 740.5 741.0Q717 743 693 743Q627 743 563.5 736.5Q500 730 436 723Q411 720 398.0 711.0Q385 702 374 682Q281 512 205.5 339.5Q130 167 68 -14Q60 -17 56.0 -10.0Q52 -3 52 2Q52 33 68.0 87.0Q84 141 110.0 205.5Q136 270 168.0 340.0Q200 410 231.0 473.5Q262 537 289.0 589.0Q316 641 333 670Q346 692 356 711Q345 710 317.5 706.0Q290 702 255.0 695.0Q220 688 182.5 679.0Q145 670 114.0 659.5Q83 649 63.0 637.0Q43 625 43 613Q43 603 62.0 587.0Q81 571 103.5 551.0Q126 531 145.0 509.0Q164 487 164 465Q158 469 143.5 480.5Q129 492 112.0 508.0Q95 524 76.5 542.5Q58 561 43.0 578.0Q28 595 18.5 608.0Q9 621 9 626Q9 648 33.0 666.5Q57 685 97.0 699.5Q137 714 188.5 726.0Q240 738 296.5 746.5Q353 755 409.5 761.0Q466 767 515.0 771.0Q564 775 602.0 776.5Q640 778 658 778Q680 778 698.5 778.5Q717 779 733.0 775.5Q749 772 762.5 762.5Q776 753 787 734Z"/></g>
    <g transform="translate(2530,0)"><path d="M304 300Q282 284 249.0 263.5Q216 243 179.5 224.5Q143 206 107.0 193.5Q71 181 43 181Q29 181 15.5 184.5Q2 188 -9.0 195.0Q-20 202 -27.0 213.0Q-34 224 -34 240Q-34 265 -15.0 294.5Q4 324 31.5 349.5Q59 375 90.0 392.5Q121 410 145 410Q152 410 162.5 407.0Q173 404 182.5 398.5Q192 393 199.0 386.0Q206 379 206 370Q206 355 187.5 337.0Q169 319 144.0 304.0Q119 289 94.0 278.5Q69 268 56 268Q47 268 38.0 269.0Q29 270 20 270L12 274Q10 265 5.5 250.0Q1 235 1 226Q1 203 24 203Q48 203 86.5 215.0Q125 227 166.0 243.5Q207 260 243.5 278.5Q280 297 300 310ZM164 383Q144 383 123.0 374.5Q102 366 83.0 352.5Q64 339 49.0 322.0Q34 305 25 288L35 287Q51 287 72.5 296.5Q94 306 114.5 320.5Q135 335 151.5 351.5Q168 368 174 383Z"/></g>
    <g transform="translate(2827,0)"><path d="M331 299Q277 268 228.5 243.5Q180 219 132 196Q112 185 90.0 177.5Q68 170 45 169Q23 167 6.5 175.5Q-10 184 -18.5 199.0Q-27 214 -27.5 234.5Q-28 255 -18 278Q17 361 86 408Q106 422 119.5 418.0Q133 414 148 396Q162 379 161.5 363.5Q161 348 144 322Q134 325 131.5 331.0Q129 337 129.0 344.5Q129 352 129.5 359.5Q130 367 126 372Q113 378 96.5 366.5Q80 355 63.5 334.5Q47 314 34.5 288.0Q22 262 17.5 240.0Q13 218 19.0 204.0Q25 190 47 193Q79 198 144.5 228.0Q210 258 326 311Z"/></g>
    <g transform="translate(3149,0)"><path d="M414 301Q395 282 372.0 261.0Q349 240 325.5 223.0Q302 206 280.0 195.5Q258 185 240.0 186.5Q222 188 210.5 204.0Q199 220 196 256Q194 285 182.0 293.0Q170 301 151 296Q141 293 126.5 282.0Q112 271 95.5 257.0Q79 243 62.5 227.5Q46 212 31.0 200.0Q16 188 4.5 181.0Q-7 174 -12 176Q-20 179 -26.0 184.5Q-32 190 -32 199Q-32 209 -23.0 244.5Q-14 280 0.0 329.0Q14 378 31.5 434.0Q49 490 65.0 540.0Q81 590 94.0 628.5Q107 667 113 681Q120 678 129.5 673.0Q139 668 139 658Q139 646 129.0 613.0Q119 580 103.5 536.5Q88 493 70.5 444.5Q53 396 38.0 352.0Q23 308 13.0 274.5Q3 241 4 227Q41 250 77.5 277.0Q114 304 144.5 318.5Q175 333 196.5 328.0Q218 323 225 281Q232 236 249.0 225.5Q266 215 289.5 225.5Q313 236 343.0 260.5Q373 285 408 310Z"/></g>
  </g>
  <g transform="translate(28.665167275794207,165.12173179645768) scale(0.17767781838628058,-0.17767781838628058)" fill="#FF2FBE" stroke="#FFEFFB" stroke-width="6" stroke-linejoin="round" opacity="1">
    <g transform="translate(0,0)"><path d="M531 -16Q511 -11 511 9Q511 35 528.5 87.0Q546 139 573.0 205.0Q600 271 633.5 344.0Q667 417 699.0 484.0Q731 551 758.5 605.5Q786 660 801 689L800 698Q786 693 762.5 668.0Q739 643 709.5 606.0Q680 569 645.5 523.0Q611 477 575.5 429.5Q540 382 504.5 337.5Q469 293 437.5 258.0Q406 223 380.0 202.0Q354 181 337 181Q316 181 304.0 194.0Q292 207 287.0 225.0Q282 243 281.0 263.5Q280 284 280 299Q280 344 285.5 388.5Q291 433 293 478Q279 467 257.0 436.5Q235 406 208.5 365.0Q182 324 154.0 277.5Q126 231 101.5 188.0Q77 145 58.0 109.5Q39 74 31 55Q26 45 26.0 32.5Q26 20 24 9Q13 0 -1 0Q-8 0 -11.5 5.0Q-15 10 -15 17Q-15 26 -3.5 52.0Q8 78 27.5 115.0Q47 152 72.0 196.5Q97 241 124.0 286.0Q151 331 178.0 373.0Q205 415 228.0 448.0Q251 481 268.0 501.0Q285 521 292 522Q309 518 315.5 503.0Q322 488 322 472Q322 418 314.5 363.5Q307 309 307 255Q307 242 309.5 230.5Q312 219 320 208Q336 207 348.0 214.5Q360 222 371 233Q404 267 443.0 315.0Q482 363 524.5 417.0Q567 471 611.0 526.0Q655 581 697.0 631.0Q739 681 777.5 720.5Q816 760 847 783Q856 779 862.5 772.5Q869 766 869 755Q869 747 864.0 733.5Q859 720 852.0 706.0Q845 692 838.0 679.0Q831 666 827 658Q743 495 666.0 326.5Q589 158 531 -16Z"/></g>
    <g transform="translate(760,0)"><path d="M163 412Q201 389 207.0 370.5Q213 352 209 336L251 337Q259 337 270.5 335.5Q282 334 293.0 330.5Q304 327 313.5 321.5Q323 316 328 309L317 302Q313 307 304.5 310.5Q296 314 286.0 315.5Q276 317 266.0 317.5Q256 318 250 318Q239 318 227.5 317.0Q216 316 205 314Q198 291 179.5 264.0Q161 237 136.5 214.0Q112 191 85.0 175.0Q58 159 33 159Q7 159 -13.5 179.0Q-34 199 -34 226Q-34 248 -18.0 283.5Q-2 319 22.5 352.5Q47 386 77.0 410.0Q107 434 134 434Q142 434 150.0 426.0Q158 418 163 412ZM50 328Q31 299 15.0 271.0Q-1 243 -1 207Q-1 183 21 183Q41 183 63.5 196.0Q86 209 107.0 228.0Q128 247 145.0 268.5Q162 290 170 307L165 306L142 330L181 334Q183 339 184.0 343.0Q185 347 185 352Q185 367 172 378Q162 375 145.5 366.0Q129 357 112 346Q93 334 72 319Q68 319 60.5 322.5Q53 326 50 328Z"/></g>
    <g transform="translate(1080,0)"><path d="M274 299Q254 277 222.0 247.0Q190 217 156.5 189.5Q123 162 92.5 143.0Q62 124 44 124Q27 124 15.0 132.0Q3 140 -5.0 153.0Q-13 166 -17.0 181.5Q-21 197 -21 211Q-21 257 -6.5 305.0Q8 353 30.0 400.0Q52 447 78.0 491.0Q104 535 128 573L123 580Q97 575 80.5 570.5Q64 566 48.5 562.5Q33 559 16.0 557.0Q-1 555 -26 555L-47 567Q-26 585 5.0 589.5Q36 594 68.0 597.0Q100 600 129.0 606.5Q158 613 176 635Q185 646 196.0 655.0Q207 664 216 675Q222 671 227.5 665.5Q233 660 233 652Q233 644 228.0 637.0Q223 630 220 622Q240 620 259.5 622.0Q279 624 299 624Q339 624 374 603Q360 603 346.0 604.0Q332 605 318 605Q290 605 261.0 601.0Q232 597 205 591Q188 587 167.0 561.5Q146 536 123.0 498.0Q100 460 78.5 414.5Q57 369 40.0 325.5Q23 282 12.5 245.5Q2 209 2 188Q2 182 3.0 174.0Q4 166 7.0 159.5Q10 153 15.5 148.5Q21 144 29 144Q47 144 78.5 163.0Q110 182 144.5 208.5Q179 235 212.0 263.5Q245 292 268 310Z"/></g>
    <g transform="translate(1342,0)"><path d="M234 300Q204 277 176.0 254.5Q148 232 125.0 213.0Q102 194 84.5 180.5Q67 167 59 161Q44 152 30.0 151.5Q16 151 5.5 156.5Q-5 162 -11.5 172.0Q-18 182 -19 194Q-20 211 -19.5 228.5Q-19 246 -16 263Q-6 321 9.0 373.0Q24 425 41.5 473.5Q59 522 79.0 570.5Q99 619 119 670Q134 666 138.0 660.5Q142 655 140 646Q137 635 134.5 623.5Q132 612 128 600Q115 558 98.5 512.5Q82 467 65.5 420.5Q49 374 33.5 327.5Q18 281 8 236Q0 202 9.0 192.0Q18 182 38.0 188.0Q58 194 84.5 211.0Q111 228 138.5 248.0Q166 268 190.0 285.5Q214 303 229 310Z"/></g>
    <g transform="translate(1569,0)"><path d="M304 300Q282 284 249.0 263.5Q216 243 179.5 224.5Q143 206 107.0 193.5Q71 181 43 181Q29 181 15.5 184.5Q2 188 -9.0 195.0Q-20 202 -27.0 213.0Q-34 224 -34 240Q-34 265 -15.0 294.5Q4 324 31.5 349.5Q59 375 90.0 392.5Q121 410 145 410Q152 410 162.5 407.0Q173 404 182.5 398.5Q192 393 199.0 386.0Q206 379 206 370Q206 355 187.5 337.0Q169 319 144.0 304.0Q119 289 94.0 278.5Q69 268 56 268Q47 268 38.0 269.0Q29 270 20 270L12 274Q10 265 5.5 250.0Q1 235 1 226Q1 203 24 203Q48 203 86.5 215.0Q125 227 166.0 243.5Q207 260 243.5 278.5Q280 297 300 310ZM164 383Q144 383 123.0 374.5Q102 366 83.0 352.5Q64 339 49.0 322.0Q34 305 25 288L35 287Q51 287 72.5 296.5Q94 306 114.5 320.5Q135 335 151.5 351.5Q168 368 174 383Z"/></g>
    <g transform="translate(1866,0)"><path d="M44 244Q34 239 24.0 237.5Q14 236 4 244Q-16 260 -13 286L-9 301Q21 377 78 433Q86 442 94.0 442.5Q102 443 109 429Q89 400 68.0 372.0Q47 344 33 310Q22 282 20.0 270.0Q18 258 34 268Q79 297 118.0 332.5Q157 368 195 406Q201 401 208.0 396.0Q215 391 222 386L194 270Q215 280 238.0 287.5Q261 295 281.0 300.0Q301 305 317.0 307.0Q333 309 341 307L342 298Q316 295 272.0 281.0Q228 267 187 243Q170 200 156.5 163.0Q143 126 128.0 91.5Q113 57 93.0 22.5Q73 -12 43 -49Q34 -61 22.5 -72.0Q11 -83 -1 -93Q-14 -103 -31 -106Q-41 -107 -50.0 -104.0Q-59 -101 -65.5 -95.0Q-72 -89 -76.0 -80.0Q-80 -71 -79 -61Q-78 -53 -76.5 -44.0Q-75 -35 -71 -27Q-60 -7 -49.5 13.5Q-39 34 -26 52Q9 107 48.5 148.0Q88 189 134 233Q140 239 147.0 251.0Q154 263 159.5 278.0Q165 293 169.0 308.5Q173 324 173 337Q137 316 106.5 291.0Q76 266 44 244ZM-48 -72Q-33 -67 -14.5 -49.5Q4 -32 23.0 -8.5Q42 15 60.0 43.5Q78 72 92.0 99.5Q106 127 114.5 151.0Q123 175 123 192Q97 160 71.0 129.5Q45 99 22.0 67.5Q-1 36 -19.5 1.5Q-38 -33 -48 -72Z"/></g>
    <g transform="translate(2201,0)"><path d="M787 734Q764 739 740.5 741.0Q717 743 693 743Q627 743 563.5 736.5Q500 730 436 723Q411 720 398.0 711.0Q385 702 374 682Q281 512 205.5 339.5Q130 167 68 -14Q60 -17 56.0 -10.0Q52 -3 52 2Q52 33 68.0 87.0Q84 141 110.0 205.5Q136 270 168.0 340.0Q200 410 231.0 473.5Q262 537 289.0 589.0Q316 641 333 670Q346 692 356 711Q345 710 317.5 706.0Q290 702 255.0 695.0Q220 688 182.5 679.0Q145 670 114.0 659.5Q83 649 63.0 637.0Q43 625 43 613Q43 603 62.0 587.0Q81 571 103.5 551.0Q126 531 145.0 509.0Q164 487 164 465Q158 469 143.5 480.5Q129 492 112.0 508.0Q95 524 76.5 542.5Q58 561 43.0 578.0Q28 595 18.5 608.0Q9 621 9 626Q9 648 33.0 666.5Q57 685 97.0 699.5Q137 714 188.5 726.0Q240 738 296.5 746.5Q353 755 409.5 761.0Q466 767 515.0 771.0Q564 775 602.0 776.5Q640 778 658 778Q680 778 698.5 778.5Q717 779 733.0 775.5Q749 772 762.5 762.5Q776 753 787 734Z"/></g>
    <g transform="translate(2530,0)"><path d="M304 300Q282 284 249.0 263.5Q216 243 179.5 224.5Q143 206 107.0 193.5Q71 181 43 181Q29 181 15.5 184.5Q2 188 -9.0 195.0Q-20 202 -27.0 213.0Q-34 224 -34 240Q-34 265 -15.0 294.5Q4 324 31.5 349.5Q59 375 90.0 392.5Q121 410 145 410Q152 410 162.5 407.0Q173 404 182.5 398.5Q192 393 199.0 386.0Q206 379 206 370Q206 355 187.5 337.0Q169 319 144.0 304.0Q119 289 94.0 278.5Q69 268 56 268Q47 268 38.0 269.0Q29 270 20 270L12 274Q10 265 5.5 250.0Q1 235 1 226Q1 203 24 203Q48 203 86.5 215.0Q125 227 166.0 243.5Q207 260 243.5 278.5Q280 297 300 310ZM164 383Q144 383 123.0 374.5Q102 366 83.0 352.5Q64 339 49.0 322.0Q34 305 25 288L35 287Q51 287 72.5 296.5Q94 306 114.5 320.5Q135 335 151.5 351.5Q168 368 174 383Z"/></g>
    <g transform="translate(2827,0)"><path d="M331 299Q277 268 228.5 243.5Q180 219 132 196Q112 185 90.0 177.5Q68 170 45 169Q23 167 6.5 175.5Q-10 184 -18.5 199.0Q-27 214 -27.5 234.5Q-28 255 -18 278Q17 361 86 408Q106 422 119.5 418.0Q133 414 148 396Q162 379 161.5 363.5Q161 348 144 322Q134 325 131.5 331.0Q129 337 129.0 344.5Q129 352 129.5 359.5Q130 367 126 372Q113 378 96.5 366.5Q80 355 63.5 334.5Q47 314 34.5 288.0Q22 262 17.5 240.0Q13 218 19.0 204.0Q25 190 47 193Q79 198 144.5 228.0Q210 258 326 311Z"/></g>
    <g transform="translate(3149,0)"><path d="M414 301Q395 282 372.0 261.0Q349 240 325.5 223.0Q302 206 280.0 195.5Q258 185 240.0 186.5Q222 188 210.5 204.0Q199 220 196 256Q194 285 182.0 293.0Q170 301 151 296Q141 293 126.5 282.0Q112 271 95.5 257.0Q79 243 62.5 227.5Q46 212 31.0 200.0Q16 188 4.5 181.0Q-7 174 -12 176Q-20 179 -26.0 184.5Q-32 190 -32 199Q-32 209 -23.0 244.5Q-14 280 0.0 329.0Q14 378 31.5 434.0Q49 490 65.0 540.0Q81 590 94.0 628.5Q107 667 113 681Q120 678 129.5 673.0Q139 668 139 658Q139 646 129.0 613.0Q119 580 103.5 536.5Q88 493 70.5 444.5Q53 396 38.0 352.0Q23 308 13.0 274.5Q3 241 4 227Q41 250 77.5 277.0Q114 304 144.5 318.5Q175 333 196.5 328.0Q218 323 225 281Q232 236 249.0 225.5Q266 215 289.5 225.5Q313 236 343.0 260.5Q373 285 408 310Z"/></g>
  </g>
</svg>
